:SAMPLES-PER-SECOND 30
:FULLY-SPECIFIED
:DEGREES
526
root  -10.0743 34.7092 0.482239 -172.434 -8.93799 179.319
RightUpLeg  -4.18987 -13.4808 -0.691533
RightLeg  6.53745 -6.73411 -0.332723
RightFoot  1.98604 0.0111041 -0.0357019
RightToes  -23.7656 -0.103893 -0.204687
Spine  -2.1507 0.95316 -1.15758
Spine1  -4.34963 1.94296 -1.58267
HEad  -63.94 -4.33331 7.41644
LeftShoulder1  -1.94126e-019 -3.10601e-018 -2.51263e-017
LeftArm  -18.1577 27.7414 -79.1945
LeftForeArm  26.0843 -23.0597 -3.63401
LeftHand  -0.290442 1.05227 7.72076
RightShoulder  -4.96962e-017 0 -2.36833e-017
RightArm  -15.864 -12.1363 79.8473
RightForeArm  48.5613 25.0651 2.87337
RightHand  -0.278732 -3.52856 -16.8045
LeftUpLeg  -6.12477 -6.46582 2.67525
LeftLeg  5.01745 13.151 0.303244
LeftFoot  6.70239 -0.0915957 1.7257
LeftToes  -25.0795 2.14545e-006 -7.7278e-009
527
root  -10.0897 34.6882 0.468774 -172.43 -7.24918 179.524
RightUpLeg  -4.02188 -13.2494 -0.638384
RightLeg  5.74569 -5.31959 -0.189486
RightFoot  2.40872 0.0124425 -0.0348759
RightToes  -24.0666 -0.105269 -0.208688
Spine  -2.22026 0.995615 -0.994866
Spine1  -4.51891 2.09774 -1.32355
HEad  -63.533 -3.48363 7.14933
LeftShoulder1  -1.94126e-019 -3.10601e-018 -2.51263e-017
LeftArm  -16.6949 25.9142 -78.5548
LeftForeArm  25.4866 -25.2975 -4.09209
LeftHand  -0.314219 0.997742 8.26528
RightShoulder  -4.96962e-017 0 -2.36833e-017
RightArm  -27.868 -11.3526 80.081
RightForeArm  56.2393 10.0921 1.545
RightHand  -0.0947675 -4.69864 -13.4806
LeftUpLeg  -5.84572 -4.96532 2.71243
LeftLeg  5.03201 13.3384 0.310856
LeftFoot  6.34728 -0.0831682 1.66142
LeftToes  -24.7837 2.14545e-006 -7.7278e-009
528
root  -10.1236 34.6222 0.458227 -172.234 -5.9118 179.666
RightUpLeg  -4.65824 -13.0053 -0.610809
RightLeg  6.30635 -4.23752 -0.19236
RightFoot  2.21967 0.0101457 0.0128983
RightToes  -24.5464 -0.108226 -0.212334
Spine  -2.27262 1.08525 -0.859389
Spine1  -4.66968 2.34119 -1.16065
HEad  -63.414 -3.16222 7.23313
LeftShoulder1  -1.94126e-019 -3.10601e-018 -2.51263e-017
LeftArm  -15.1465 23.8566 -77.8081
LeftForeArm  25.8517 -27.1931 -4.49473
LeftHand  -0.320385 1.00524 8.44346
RightShoulder  -4.96962e-017 0 -2.36833e-017
RightArm  -37.7891 -13.2986 78.9447
RightForeArm  67.0957 4.25838 0.697664
RightHand  0.0463502 -5.95141 -13.3759
LeftUpLeg  -6.30024 -3.82506 2.70559
LeftLeg  6.07919 13.5269 0.560227
LeftFoot  5.58523 -0.0646636 1.48714
LeftToes  -24.7172 2.14545e-006 -7.7278e-009
529
root  -10.1728 34.5766 0.468887 -172.033 -4.74696 179.812
RightUpLeg  -5.35035 -12.0884 -0.553561
RightLeg  6.92537 -4.02544 -0.226257
RightFoot  2.13732 0.010759 0.0110799
RightToes  -25.227 -0.112012 -0.216897
Spine  -2.34214 0.966271 -0.709014
Spine1  -4.79848 2.064 -0.90821
HEad  -63.6846 -2.15485 7.24771
LeftShoulder1  -1.94126e-019 -3.10601e-018 -2.51263e-017
LeftArm  -15.0295 22.0231 -77.37
LeftForeArm  26.9592 -28.0553 -4.69507
LeftHand  -0.340671 0.706558 8.44099
RightShoulder  -4.96962e-017 0 -2.36833e-017
RightArm  -38.6398 -16.4264 77.5563
RightForeArm  69.35 2.17113 0.330275
RightHand  0.236419 -7.43984 -14.5551
LeftUpLeg  -6.56348 -2.8384 2.68641
LeftLeg  6.58917 13.7032 0.688385
LeftFoot  5.11687 -0.0540668 1.37153
LeftToes  -24.5966 2.14545e-006 -7.7278e-009
530
root  -10.2385 34.5482 0.47949 -171.853 -3.60481 179.917
RightUpLeg  -5.82665 -11.6059 -0.594134
RightLeg  7.1812 -3.39874 -0.20616
RightFoot  2.17279 0.0112859 0.0110563
RightToes  -25.6697 -0.115267 -0.220772
Spine  -2.40054 0.699207 -0.504965
Spine1  -4.88166 1.4571 -0.511151
HEad  -64.2343 -0.452684 7.17398
LeftShoulder1  -1.94126e-019 -3.10601e-018 -2.51263e-017
LeftArm  -15.6282 20.6326 -77.2068
LeftForeArm  26.9808 -27.7375 -4.73617
LeftHand  -0.350049 0.870702 8.97396
RightShoulder  -4.96962e-017 0 -2.36833e-017
RightArm  -40.3639 -19.3863 76.1067
RightForeArm  68.0387 2.15606 0.333251
RightHand  0.317298 -7.92209 -15.4658
LeftUpLeg  -6.48734 -1.80165 2.59716
LeftLeg  6.43819 13.8206 0.658044
LeftFoot  4.93328 -0.050697 1.31914
LeftToes  -24.4325 2.14545e-006 -7.7278e-009
531
root  -10.3103 34.5313 0.484751 -171.849 -2.4368 179.999
RightUpLeg  -6.14922 -10.809 -0.692503
RightLeg  7.48992 -3.05738 -0.201913
RightFoot  2.2153 0.0119045 0.0101857
RightToes  -26.0114 -0.116436 -0.2226
Spine  -2.41435 0.306413 -0.312795
Spine1  -4.88136 0.610757 -0.122018
HEad  -64.5019 1.89965 6.82227
LeftShoulder1  -1.94126e-019 -3.10601e-018 -2.51263e-017
LeftArm  -16.5517 19.8318 -77.0706
LeftForeArm  26.4541 -26.8574 -4.66838
LeftHand  -0.336065 1.31161 9.49634
RightShoulder  -4.96962e-017 0 -2.36833e-017
RightArm  -43.0151 -21.6246 74.8496
RightForeArm  65.0311 3.11879 0.51058
RightHand  0.333619 -7.86645 -16.488
LeftUpLeg  -6.05672 -0.455296 2.47637
LeftLeg  5.92688 13.6154 0.527939
LeftFoot  4.93418 -0.0486409 1.28718
LeftToes  -24.5325 2.14545e-006 -7.7278e-009
532
root  -10.381 34.5213 0.483004 -171.879 -1.11166 -179.946
RightUpLeg  -6.4915 -9.55611 -0.820474
RightLeg  7.88587 -3.01874 -0.220308
RightFoot  2.18974 0.0128519 0.00497705
RightToes  -25.9315 -0.116932 -0.223389
Spine  -2.43202 -0.0802776 -0.137822
Spine1  -4.90257 -0.200033 0.235041
HEad  -64.5669 4.55935 6.45982
LeftShoulder1  -1.94126e-019 -3.10601e-018 -2.51263e-017
LeftArm  -17.0639 19.462 -76.9474
LeftForeArm  26.4436 -25.4202 -4.45864
LeftHand  -0.333935 1.50216 9.618
RightShoulder  -4.96962e-017 0 -2.36833e-017
RightArm  -45.915 -22.9311 73.8798
RightForeArm  61.5625 4.03792 0.678364
RightHand  0.252148 -7.13058 -17.809
LeftUpLeg  -5.69255 0.929418 2.32323
LeftLeg  5.70018 13.5173 0.471173
LeftFoot  4.80947 -0.0456139 1.24012
LeftToes  -24.4134 2.14545e-006 -7.7278e-009
533
root  -10.4479 34.5099 0.478191 -171.931 0.111694 -179.865
RightUpLeg  -6.78656 -8.33462 -0.9139
RightLeg  8.2599 -3.0345 -0.241385
RightFoot  2.20563 0.0139285 -0.00181185
RightToes  -26.1476 -0.116932 -0.223762
Spine  -2.45426 -0.41998 0.0196938
Spine1  -4.94178 -0.899292 0.550543
HEad  -64.4514 6.7823 6.26621
LeftShoulder1  -1.94126e-019 -3.10601e-018 -2.51263e-017
LeftArm  -16.6487 19.4664 -76.8614
LeftForeArm  27.3274 -24.1646 -4.24787
LeftHand  -0.339721 1.22554 9.4115
RightShoulder  -4.96962e-017 0 -2.36833e-017
RightArm  -47.2324 -23.9823 73.2301
RightForeArm  58.8347 5.54779 0.945699
RightHand  0.104519 -6.30703 -15.3711
LeftUpLeg  -5.51657 2.20876 2.21674
LeftLeg  5.87818 13.412 0.508878
LeftFoot  4.46994 -0.0394732 1.14467
LeftToes  -24.2739 2.14545e-006 -7.7278e-009
534
root  -10.5126 34.4999 0.459147 -172.011 1.13351 -179.827
RightUpLeg  -6.74899 -8.06493 -1.0717
RightLeg  8.11898 -2.28068 -0.17557
RightFoot  2.33007 0.0132451 0.0167127
RightToes  -26.1507 -0.116932 -0.224342
Spine  -2.46302 -0.657712 0.156977
Spine1  -4.9588 -1.38501 0.833263
HEad  -64.1239 8.20292 5.97305
LeftShoulder1  -1.94126e-019 -3.10601e-018 -2.51263e-017
LeftArm  -15.1972 19.7336 -76.9507
LeftForeArm  28.5092 -23.2735 -4.06917
LeftHand  -0.343016 1.01731 9.07183
RightShoulder  -4.96962e-017 0 -2.36833e-017
RightArm  -46.1259 -25.2809 73.0173
RightForeArm  55.5534 7.91817 1.35896
RightHand  0.024529 -5.67697 -15.9325
LeftUpLeg  -5.26574 2.90003 2.07955
LeftLeg  5.93938 13.7168 0.534768
LeftFoot  4.21672 -0.0370495 1.107
LeftToes  -24.2404 2.14545e-006 -7.7278e-009
535
root  -10.5737 34.4984 0.435453 -171.989 1.99576 -179.759
RightUpLeg  -6.66383 -7.72624 -1.13553
RightLeg  7.71873 -1.86891 -0.130566
RightFoot  2.62219 0.0135713 0.0208777
RightToes  -26.2868 -0.116932 -0.224342
Spine  -2.50062 -0.792176 0.244792
Spine1  -5.03402 -1.66123 1.02054
HEad  -63.6553 9.08082 5.80874
LeftShoulder1  -1.94126e-019 -3.10601e-018 -2.51263e-017
LeftArm  -14.3174 20.2037 -77.3484
LeftForeArm  29.7384 -22.8073 -3.96553
LeftHand  -0.256725 1.56347 7.65779
RightShoulder  -4.96962e-017 0 -2.36833e-017
RightArm  -44.03 -26.5863 73.1127
RightForeArm  52.3814 10.2795 1.55885
RightHand  -0.0143717 -5.3943 -15.1982
LeftUpLeg  -5.10042 3.46819 1.9802
LeftLeg  5.92258 13.9972 0.541432
LeftFoot  4.01806 -0.0353047 1.07988
LeftToes  -23.9737 2.14545e-006 -7.7278e-009
536
root  -10.6222 34.5046 0.413264 -171.964 2.74002 -179.606
RightUpLeg  -6.7649 -6.76119 -1.12065
RightLeg  7.70932 -2.08463 -0.145407
RightFoot  2.82014 0.0153083 0.00484852
RightToes  -26.3628 -0.116932 -0.224342
Spine  -2.54843 -0.822254 0.310774
Spine1  -5.13138 -1.72914 1.16304
HEad  -63.1169 9.4323 5.97553
LeftShoulder1  -1.94126e-019 -3.10601e-018 -2.51263e-017
LeftArm  -13.2462 20.8982 -77.828
LeftForeArm  29.9771 -22.6602 -3.90273
LeftHand  -0.285934 1.07035 7.62874
RightShoulder  -4.96962e-017 0 -2.36833e-017
RightArm  -42.3827 -27.779 73.5071
RightForeArm  49.0462 12.2996 1.52054
RightHand  -0.0988424 -4.72786 -14.9806
LeftUpLeg  -4.97515 3.88535 1.99004
LeftLeg  5.94239 14.3199 0.558577
LeftFoot  3.85115 -0.0341483 1.0619
LeftToes  -23.6851 2.14545e-006 -7.7278e-009
537
root  -10.6789 34.5043 0.379296 -171.861 3.24431 -179.555
RightUpLeg  -6.51542 -7.33785 -1.20413
RightLeg  6.94754 -1.00441 -0.0561077
RightFoot  3.24116 0.0130049 0.046425
RightToes  -26.4539 -0.116932 -0.224342
Spine  -2.63259 -0.841333 0.317899
Spine1  -5.29904 -1.77149 1.19524
HEad  -62.4879 9.36674 6.33204
LeftShoulder1  -1.94126e-019 -3.10601e-018 -2.51263e-017
LeftArm  -13.0658 21.6203 -78.3989
LeftForeArm  30.39 -22.6481 -3.86846
LeftHand  -0.273835 0.812244 6.91502
RightShoulder  -4.96962e-017 0 -2.36833e-017
RightArm  -41.6879 -28.7013 74.1088
RightForeArm  46.9659 13.6524 1.44196
RightHand  -0.112064 -4.61035 -14.7084
LeftUpLeg  -4.90112 4.33241 1.9031
LeftLeg  5.84796 14.3946 0.537939
LeftFoot  3.72947 -0.0326997 1.03938
LeftToes  -23.597 2.14545e-006 -7.7278e-009
